<?xml version="1.0" standalone="no"?>
<!DOCTYPE svg PUBLIC "-//W3C//DTD SVG 20010904//EN"
 "http://www.w3.org/TR/2001/REC-SVG-20010904/DTD/svg10.dtd">
<svg version="1.0" xmlns="http://www.w3.org/2000/svg"
 width="2481.000000pt" height="3508.000000pt" viewBox="0 0 2481.000000 3508.000000"
 preserveAspectRatio="xMidYMid meet">

<g transform="translate(0.000000,3508.000000) scale(0.100000,-0.100000)"
fill="#000000" stroke="none">
<path d="M11069 34771 c-23 -19 -24 -22 -23 -204 l1 -186 -66 34 c-249 124
-556 137 -795 31 l-53 -24 1 -76 1 -76 -30 -5 c-16 -2 -79 -12 -140 -20 -521
-77 -1459 -372 -2176 -685 -523 -229 -1032 -504 -1607 -870 -428 -271 -658
-462 -804 -667 -79 -110 -77 -154 9 -184 l31 -10 -71 -62 c-40 -34 -126 -100
-192 -146 -335 -235 -554 -418 -840 -705 -378 -379 -583 -635 -706 -883 -45
-89 -106 -204 -136 -255 -135 -227 -200 -400 -210 -565 -5 -66 -3 -87 11 -108
9 -14 23 -25 31 -25 8 0 15 -2 15 -4 0 -2 -35 -62 -77 -133 -141 -236 -219
-430 -230 -570 -5 -67 -4 -73 20 -97 14 -14 35 -26 46 -26 19 0 19 -2 5 -52
-9 -29 -51 -147 -94 -263 -83 -222 -110 -327 -140 -545 -34 -240 -43 -452 -37
-830 6 -356 15 -512 62 -1015 30 -330 87 -980 160 -1835 30 -355 66 -730 80
-835 37 -284 53 -447 65 -685 6 -118 15 -257 21 -308 11 -113 3 -136 -59 -170
-34 -19 -65 -25 -160 -32 -152 -10 -184 -20 -273 -79 -209 -136 -345 -372
-414 -716 -60 -297 -85 -598 -92 -1095 -9 -665 33 -1176 143 -1735 90 -453
192 -786 369 -1200 324 -757 581 -1065 934 -1115 117 -16 229 11 323 80 24 17
69 46 101 65 l57 34 0 -67 c0 -77 31 -423 61 -687 94 -826 243 -1628 342
-1835 165 -346 809 -1249 1546 -2165 261 -326 341 -416 545 -620 191 -191 330
-308 486 -411 93 -62 96 -64 140 -151 58 -114 239 -384 299 -447 51 -54 121
-91 155 -82 19 5 25 -1 40 -47 10 -29 47 -112 83 -184 56 -117 62 -135 52
-155 -25 -47 -150 -228 -279 -403 -179 -243 -335 -482 -510 -784 l-55 -93
-168 -84 c-517 -260 -751 -327 -2077 -600 -769 -158 -921 -202 -1102 -319
-131 -86 -225 -191 -326 -368 -64 -112 -119 -237 -244 -557 -407 -1039 -498
-1385 -773 -2935 -108 -611 -331 -1807 -405 -2175 -66 -325 -100 -527 -116
-682 l-6 -68 50 0 c48 0 51 2 61 33 24 76 63 248 106 472 26 132 114 575 196
985 82 410 206 1035 274 1390 299 1549 358 1803 539 2335 147 432 386 983 508
1171 126 196 315 332 571 413 119 38 497 115 1057 217 228 41 489 88 580 105
429 78 794 190 1025 312 36 19 65 32 65 29 0 -3 -20 -41 -44 -86 -156 -287
-421 -845 -588 -1239 -220 -522 -598 -1547 -598 -1624 0 -36 15 -59 48 -72 27
-11 54 -3 328 97 165 61 731 268 1259 460 1087 397 1300 475 1435 528 76 30
112 38 182 42 80 4 93 2 143 -23 70 -34 191 -123 279 -205 96 -91 201 -215
381 -455 214 -285 263 -344 375 -455 149 -150 300 -242 650 -397 195 -87 483
-200 658 -259 153 -52 174 -52 180 -3 2 21 -11 31 -105 84 -167 92 -430 222
-628 310 -236 105 -349 163 -466 240 -136 91 -231 184 -376 369 -223 284 -313
386 -543 617 -240 241 -334 315 -437 345 -84 24 -135 14 -390 -80 -125 -46
-529 -195 -898 -331 -1393 -513 -1868 -686 -1872 -681 -9 8 204 589 345 941
284 709 661 1498 974 2035 197 337 306 500 406 605 113 118 274 332 391 517
46 73 85 135 87 137 1 2 51 -46 111 -107 59 -60 142 -133 183 -161 41 -29 78
-62 83 -73 8 -23 -6 -217 -26 -343 l-12 -80 -65 123 c-45 85 -70 122 -82 122
-25 0 -23 -41 7 -175 69 -305 206 -643 405 -1001 389 -699 822 -1274 1341
-1779 186 -182 379 -353 718 -639 552 -465 651 -565 866 -875 54 -78 124 -173
157 -212 l60 -71 -26 -91 c-77 -274 -92 -408 -106 -942 -7 -301 -14 -400 -39
-603 -35 -282 -47 -530 -56 -1142 -6 -391 -20 -629 -50 -802 l-4 -28 88 0 89
0 5 383 c3 282 10 437 25 592 33 333 42 491 52 965 13 588 35 873 96 1250 96
596 282 974 752 1527 71 84 167 206 212 270 126 177 189 252 365 433 476 487
1233 1347 1622 1840 652 828 939 1336 1058 1874 40 179 33 182 -65 26 l-85
-135 -3 80 c-2 44 -2 177 0 296 l3 215 55 62 c49 56 58 62 84 57 74 -13 92
-41 226 -335 204 -450 296 -608 634 -1090 426 -607 491 -724 918 -1675 492
-1095 768 -1678 856 -1813 l15 -23 -54 22 c-77 30 -208 78 -399 144 -238 83
-319 116 -665 275 -994 456 -1380 590 -1704 590 -88 0 -116 -4 -195 -31 -151
-50 -259 -117 -538 -335 -86 -67 -243 -179 -350 -249 -232 -153 -330 -229
-424 -326 -86 -91 -110 -126 -205 -304 -88 -166 -151 -240 -242 -285 -78 -38
-192 -60 -315 -60 -368 -1 -579 -43 -815 -161 -310 -156 -559 -436 -642 -724
-30 -101 8 -103 72 -3 194 302 427 511 676 608 147 57 255 75 553 90 339 17
434 33 562 96 127 62 210 153 322 354 78 139 127 208 191 272 62 60 1026 711
1138 768 141 71 262 76 481 20 305 -77 548 -169 1163 -441 948 -420 1205 -509
1463 -509 118 0 137 26 93 127 -12 26 -43 113 -69 193 -31 95 -147 366 -335
785 -157 352 -350 786 -427 965 -248 573 -442 971 -563 1153 l-18 29 39 -18
c396 -174 728 -283 1155 -377 352 -79 581 -116 1099 -182 565 -72 917 -145
1148 -238 48 -20 57 -27 56 -48 -1 -13 -26 -109 -57 -214 -176 -598 -286
-1188 -313 -1689 -7 -122 -6 -128 12 -124 15 3 22 22 37 118 147 915 256 1485
357 1859 l11 44 34 -33 c47 -46 85 -122 161 -322 278 -737 465 -1411 829
-2993 135 -588 240 -1077 371 -1740 59 -297 168 -846 243 -1220 l136 -680 57
-3 56 -3 -5 43 c-117 987 -325 2126 -643 3521 -380 1673 -607 2496 -871 3160
-126 315 -245 445 -489 532 -242 86 -528 141 -1145 220 -777 100 -1202 199
-2075 483 l-334 109 -218 304 c-439 612 -597 866 -734 1184 -57 133 -100 204
-165 271 l-50 51 48 43 c146 132 627 607 897 885 754 777 997 1063 1487 1755
366 517 469 675 586 906 163 321 235 580 273 984 25 271 30 311 95 840 56 455
81 691 90 875 3 61 8 129 11 153 l5 43 55 -50 c176 -161 464 -196 722 -89 291
121 622 484 890 975 422 773 662 1842 737 3283 8 162 20 369 26 460 14 220 14
610 -1 740 -49 440 -212 757 -479 934 -117 78 -273 125 -418 126 l-63 0 0 33
c0 17 -4 102 -10 187 -19 305 -30 810 -40 1740 -14 1340 -37 1855 -111 2490
-185 1594 -672 2754 -1531 3646 -164 170 -424 392 -564 482 -49 31 -51 34 -52
78 -2 146 -163 316 -622 654 -479 354 -942 639 -1460 900 -278 139 -426 208
-517 239 l-58 20 48 1 c40 0 54 5 79 30 48 49 36 73 -87 177 -95 81 -221 155
-495 292 -483 241 -799 367 -1279 512 -493 149 -892 219 -1255 219 l-169 0 21
23 c32 34 62 107 62 153 1 139 -202 202 -430 132 -100 -31 -187 -77 -367 -196
-23 -14 -23 -14 4 54 38 98 40 127 12 153 -38 35 -70 27 -160 -41 -102 -76
-243 -210 -299 -283 -23 -30 -45 -55 -49 -55 -3 0 -21 23 -39 50 -17 28 -38
50 -45 50 -7 0 -35 23 -62 51 -28 28 -103 98 -168 155 -127 112 -152 123 -198
85z m2642 -5119 c244 -253 455 -515 600 -748 79 -127 98 -144 134 -120 81 53
125 240 105 451 -9 94 -49 312 -67 363 -3 9 17 -21 45 -67 109 -177 148 -204
187 -126 28 57 27 281 -2 408 -11 48 -19 87 -17 87 8 0 256 -385 379 -590 81
-135 154 -253 162 -262 24 -27 77 -23 102 7 61 79 68 339 16 630 l-7 40 33
-50 c53 -81 225 -244 334 -317 122 -81 350 -196 465 -234 61 -20 106 -28 158
-29 71 0 75 1 104 34 47 52 38 113 -40 267 -67 131 -133 274 -127 274 16 0
247 -306 319 -422 44 -72 51 -78 81 -78 40 0 76 38 112 118 47 107 52 244 16
472 -5 33 -3 31 32 -25 60 -98 124 -155 175 -155 58 0 134 83 146 161 l6 36
147 -149 c221 -226 409 -489 718 -1003 344 -573 508 -908 578 -1179 67 -262
88 -482 105 -1096 5 -206 13 -410 16 -453 3 -42 8 -283 10 -535 2 -251 6 -495
8 -542 3 -47 27 -247 55 -445 215 -1538 320 -2519 381 -3555 37 -631 42 -799
51 -1715 5 -500 12 -937 15 -970 4 -38 13 -67 24 -80 10 -11 20 -24 22 -30 7
-21 95 -8 154 24 120 64 278 220 334 331 97 190 109 418 45 887 -46 342 -48
396 -41 1088 4 358 11 704 17 770 64 729 328 1174 793 1340 167 60 334 80 458
54 93 -19 211 -83 288 -156 85 -80 127 -135 180 -239 93 -182 130 -369 137
-699 7 -323 -42 -1583 -77 -1990 -98 -1122 -492 -2150 -1068 -2784 -188 -207
-385 -315 -577 -315 -141 0 -239 50 -395 200 l-90 87 -1 341 c-1 188 -4 379
-7 426 -7 83 -8 85 -34 88 -16 2 -28 0 -28 -5 0 -4 -16 -120 -35 -258 -149
-1056 -229 -1768 -275 -2440 -34 -490 -136 -863 -357 -1298 -210 -412 -489
-801 -964 -1342 -233 -264 -1049 -1160 -1573 -1725 -292 -315 -276 -300 -222
-205 83 145 150 342 176 515 6 41 22 116 35 165 55 205 67 305 72 582 l5 263
29 -36 c33 -42 34 -41 49 69 24 187 7 470 -41 662 -24 92 -80 247 -117 320
l-25 50 42 -38 c74 -67 76 -50 14 153 -48 161 -105 303 -182 455 -64 126 -209
360 -218 351 -2 -2 3 -37 12 -77 12 -54 18 -138 21 -309 l4 -235 -34 95 -33
95 -6 -75 c-18 -220 -29 -338 -34 -363 l-6 -29 -41 40 c-43 42 -132 102 -151
102 -9 0 -14 -104 -19 -377 -4 -208 -10 -403 -14 -433 l-7 -55 -14 45 c-22 75
-67 166 -124 253 -57 87 -180 226 -191 216 -4 -4 6 -40 22 -80 53 -134 138
-417 128 -426 -2 -2 -64 71 -137 164 -74 92 -135 160 -137 152 -1 -8 22 -116
51 -241 l54 -227 -41 36 c-42 38 -103 106 -130 145 -9 12 -17 20 -19 17 -2 -2
4 -87 14 -189 10 -102 16 -186 15 -188 -2 -1 -31 36 -66 83 -34 48 -64 84 -67
81 -2 -2 9 -64 26 -138 49 -215 76 -396 95 -638 l6 -65 -26 84 c-63 211 -153
363 -303 512 -88 87 -206 178 -217 166 -3 -2 11 -24 31 -47 153 -183 232 -471
195 -710 -14 -86 -49 -202 -59 -196 -5 3 -12 33 -15 67 -21 181 -133 408 -279
563 -52 55 -69 57 -37 3 30 -51 35 -120 16 -237 -21 -125 -71 -283 -139 -443
l-52 -122 -3 163 c-1 89 -6 162 -11 162 -4 0 -68 -122 -141 -272 -186 -379
-205 -396 -195 -165 3 83 8 170 12 192 7 56 -7 37 -52 -65 -20 -47 -60 -128
-88 -180 l-51 -95 -9 50 c-7 47 -3 171 9 260 5 33 -4 21 -49 -72 -31 -62 -77
-145 -103 -185 -56 -88 -135 -191 -140 -185 -3 3 60 350 80 440 10 43 -13 8
-59 -89 -46 -100 -181 -321 -190 -312 -2 2 5 58 16 123 10 66 22 158 25 205
l5 85 -23 -39 c-33 -57 -159 -246 -163 -246 -5 0 5 113 21 234 7 60 12 111 10
114 -11 10 -91 -139 -142 -263 l-32 -80 -12 45 c-24 92 -83 286 -92 303 -23
45 2 20 52 -48 29 -41 55 -75 58 -75 3 0 3 39 0 88 -5 77 -31 176 -72 273 -5
11 13 6 61 -18 43 -21 91 -36 127 -40 l59 -6 -34 49 c-18 27 -70 87 -114 133
-45 47 -71 81 -60 78 123 -37 279 -77 287 -75 18 6 -267 224 -364 279 -30 17
-42 27 -28 24 14 -3 70 -14 125 -25 133 -27 295 -73 428 -122 60 -22 111 -37
114 -34 8 8 -80 109 -138 158 -27 23 -48 43 -46 45 2 1 59 -20 127 -47 68 -27
125 -48 128 -45 8 7 -74 99 -159 179 -97 91 -241 189 -370 251 l-94 46 90 -6
c128 -9 311 -31 444 -55 62 -11 116 -19 118 -16 9 9 -111 80 -200 118 -49 21
-118 47 -155 58 -37 10 -62 19 -57 19 44 4 159 23 200 33 44 10 47 12 25 19
-14 4 -55 7 -91 8 -36 1 -69 4 -72 8 -4 3 35 24 86 47 444 194 834 457 1185
800 372 364 653 748 772 1058 32 83 37 118 18 118 -7 -1 -104 -139 -216 -308
-281 -425 -413 -586 -652 -795 -655 -573 -1423 -933 -2322 -1087 -412 -70
-709 -94 -1085 -87 -420 8 -681 48 -1023 159 -417 135 -714 295 -1055 569
-152 122 -237 211 -457 479 -221 268 -232 280 -247 280 -33 0 77 -217 181
-355 96 -129 351 -392 491 -508 268 -222 639 -435 963 -552 128 -47 415 -125
456 -125 35 0 9 -14 -72 -39 -85 -27 -168 -66 -252 -119 -60 -39 -74 -56 -35
-47 31 7 369 75 375 75 3 0 -32 -22 -77 -50 -104 -62 -208 -147 -279 -227 -60
-67 -114 -144 -107 -151 4 -4 162 81 393 211 49 27 43 19 -91 -114 -139 -139
-305 -334 -294 -345 3 -3 70 39 149 94 78 55 144 99 146 97 1 -1 -13 -35 -32
-76 -43 -94 -88 -219 -78 -219 4 0 73 66 154 147 l148 148 -75 -219 c-42 -121
-74 -223 -73 -228 2 -5 76 52 165 126 l162 136 -34 -80 c-19 -44 -39 -89 -45
-101 -7 -11 -9 -23 -6 -26 10 -10 106 59 150 108 l45 50 -30 -108 c-16 -60
-37 -138 -46 -175 l-17 -67 -34 39 c-46 54 -66 53 -58 -2 3 -24 8 -68 11 -98
l6 -55 -61 65 -61 65 5 -80 c4 -44 3 -105 -1 -135 l-8 -55 -47 43 c-26 24 -62
66 -79 94 -18 28 -35 46 -37 40 -2 -7 5 -24 16 -39 21 -30 37 -73 28 -73 -4 0
-38 21 -77 47 l-71 47 -40 -23 c-22 -12 -41 -21 -43 -19 -1 2 -26 49 -54 106
-28 56 -52 102 -54 102 -1 0 0 -56 2 -124 4 -176 -2 -180 -76 -49 -34 59 -68
126 -77 147 -21 51 -30 41 -15 -18 13 -52 8 -221 -7 -236 -6 -6 -55 63 -134
190 -69 110 -128 199 -132 200 -3 0 0 -21 8 -47 8 -26 17 -79 21 -117 l6 -71
-28 25 c-56 51 -186 223 -222 293 -20 40 -67 149 -104 242 -46 113 -69 160
-69 140 0 -16 14 -117 30 -224 17 -107 29 -196 27 -198 -2 -2 -44 62 -92 143
-96 161 -105 165 -105 53 0 -36 -3 -100 -6 -141 l-7 -76 -94 190 c-51 105 -95
189 -97 187 -3 -2 0 -27 6 -54 12 -58 15 -341 4 -352 -4 -4 -11 -1 -16 7 -22
36 -142 421 -177 567 -21 90 -41 163 -44 163 -10 0 -40 -180 -49 -292 -4 -61
-5 -146 -3 -189 3 -44 3 -79 0 -79 -8 0 -62 236 -81 350 -19 122 -33 254 -42
405 l-7 120 -13 -50 c-32 -116 -57 -299 -63 -455 l-6 -165 -32 140 c-53 231
-100 509 -128 750 -13 110 -27 25 -34 -210 l-6 -220 -33 150 c-51 237 -69 370
-98 738 -3 43 -8 77 -10 74 -22 -22 -93 -360 -95 -455 -1 -26 -34 144 -74 378
-40 234 -73 427 -74 430 -5 16 -29 -63 -127 -417 -60 -215 -109 -391 -110
-390 -7 9 31 573 56 822 10 104 17 192 14 194 -15 15 -154 -390 -203 -589 -17
-69 -42 -190 -56 -270 -42 -236 -38 -225 -46 -130 -9 104 -38 270 -48 270 -11
0 -38 -163 -52 -305 -12 -124 -6 -435 10 -530 5 -27 8 -51 7 -52 -1 -1 -39 89
-85 200 -46 111 -87 206 -91 211 -14 15 -23 -145 -17 -284 8 -156 27 -292 62
-438 14 -57 25 -127 25 -156 0 -67 22 -141 72 -239 67 -135 125 -289 132 -352
l6 -60 -268 270 c-274 276 -385 397 -603 660 -487 587 -1289 1737 -1494 2144
-73 143 -111 290 -175 670 -83 498 -167 1192 -314 2575 -30 279 -59 513 -65
519 -8 8 -14 8 -22 0 -15 -15 -32 -600 -25 -854 l7 -206 -24 -10 c-13 -6 -50
-36 -83 -65 -101 -94 -185 -144 -257 -157 -210 -37 -393 108 -607 479 -185
322 -322 658 -475 1160 -124 411 -197 835 -252 1480 -22 260 -26 1235 -5 1390
32 238 82 425 158 588 111 238 242 363 398 379 220 23 509 -244 614 -567 36
-111 120 -463 172 -720 78 -391 118 -654 135 -900 35 -487 80 -739 161 -904
l34 -70 1 -180 c1 -100 4 -221 8 -271 l6 -90 30 0 c35 0 35 -2 65 265 33 299
43 519 42 975 -1 910 -41 2030 -137 3830 -125 2331 -141 2844 -104 3440 64
1056 342 1914 821 2534 35 45 84 109 110 144 103 137 293 347 626 692 l164
170 -43 -75 c-94 -166 -249 -570 -249 -648 0 -43 38 -82 80 -82 51 0 284 125
489 262 116 78 283 203 414 311 64 53 117 95 117 93 0 -3 -34 -50 -75 -105
-161 -215 -355 -538 -355 -590 0 -30 22 -61 43 -61 43 0 303 45 383 66 129 33
212 69 436 185 193 101 325 179 390 230 l37 30 -49 -104 c-47 -102 -142 -344
-155 -400 -10 -37 17 -77 52 -77 20 0 44 19 102 83 104 114 304 317 308 314 1
-2 -6 -45 -17 -95 -48 -221 -62 -507 -36 -730 14 -121 26 -146 75 -157 56 -12
74 6 183 182 57 92 129 210 158 262 30 52 56 89 57 84 2 -6 -5 -92 -17 -192
-11 -99 -20 -194 -20 -211 0 -32 22 -50 62 -50 47 0 850 602 1170 878 60 50
108 90 108 87 0 -3 -14 -33 -31 -66 -88 -175 -138 -405 -146 -677 -5 -166 -4
-184 12 -202 18 -20 60 -26 81 -12 7 4 43 79 80 167 86 201 242 513 359 717
49 87 90 156 92 155 1 -2 -5 -57 -13 -123 -27 -199 0 -580 42 -611 23 -17 38
-16 74 2 42 22 75 71 99 145 11 36 49 160 86 275 36 116 67 216 70 223 3 8 29
-23 63 -75 68 -103 135 -187 205 -260 41 -42 58 -53 83 -53 17 0 37 6 43 14 6
7 18 64 26 127 27 208 67 464 74 472 4 4 39 -50 78 -120 92 -166 119 -220 188
-383 31 -74 83 -191 115 -260 33 -69 74 -163 92 -210 l33 -85 43 -3 42 -3 30
62 c49 105 64 192 57 348 -6 144 -53 430 -122 748 -9 37 18 -8 145 -247 124
-233 180 -357 292 -645 88 -230 206 -485 248 -537 22 -29 48 -35 79 -18 22 11
64 109 87 200 23 88 30 545 14 863 -6 132 -10 240 -8 242 6 6 425 -559 501
-675 41 -63 157 -258 257 -433 235 -412 291 -501 319 -505 16 -3 21 2 21 18 0
11 7 23 15 26 33 13 13 341 -36 585 -39 199 -143 584 -228 849 -22 68 -38 126
-36 128 7 7 226 -317 314 -463 49 -82 149 -262 222 -400 162 -306 175 -327
197 -323 11 3 16 12 14 28 -1 15 8 33 27 52 39 38 46 85 27 194 -8 49 -20 130
-26 179 -19 154 -59 382 -101 574 -39 177 -130 517 -163 610 -9 24 -16 48 -16
53 0 15 175 -149 321 -300z m1808 -20521 c2 -423 -44 -565 -324 -984 -213
-321 -449 -634 -762 -1009 -197 -236 -270 -320 -747 -863 -164 -187 -374 -430
-466 -540 -299 -358 -1088 -1351 -1153 -1452 -129 -197 -227 -389 -227 -445 0
-16 -8 -7 -25 30 -37 80 -122 206 -207 307 -141 169 -367 372 -868 785 -359
295 -489 409 -679 595 -352 345 -664 724 -936 1135 -193 292 -297 478 -507
907 l-138 281 25 54 c25 56 55 158 55 193 0 43 15 50 52 22 51 -39 101 -57
205 -73 82 -12 100 -18 131 -45 19 -17 51 -38 69 -46 19 -8 40 -26 46 -41 35
-80 71 -107 192 -147 94 -30 109 -43 130 -105 19 -58 73 -115 134 -144 35 -16
66 -21 131 -21 l85 0 68 -71 c123 -129 247 -171 340 -116 l38 22 62 -21 c78
-27 170 -22 239 11 l46 23 47 -41 c96 -84 241 -107 360 -56 33 14 69 28 81 31
27 6 78 -18 132 -62 65 -53 109 -50 204 15 98 67 124 67 260 -1 119 -60 186
-68 254 -32 22 12 66 35 98 52 70 37 108 39 224 11 46 -11 102 -20 126 -20 61
0 136 25 187 62 38 27 51 31 99 29 48 -2 68 4 150 44 103 50 84 48 257 29 l63
-6 77 75 c43 41 96 84 118 95 22 11 93 31 158 46 142 31 227 69 286 130 l44
45 36 -21 c47 -26 59 -21 209 91 144 108 227 196 277 294 21 39 39 73 40 75 1
2 28 -9 60 -23 32 -14 65 -25 74 -25 34 0 60 33 136 173 106 196 97 185 135
153 48 -40 75 -34 130 27 86 93 179 208 333 412 83 110 189 249 236 310 84
107 86 109 92 80 4 -17 7 -122 8 -234z"/>
<path d="M15145 23345 c-82 -8 -280 -26 -440 -40 -958 -86 -1692 -207 -2342
-385 -166 -46 -223 -72 -282 -131 -57 -57 -91 -128 -141 -290 -22 -74 -50
-158 -60 -187 -42 -111 -22 -152 103 -211 101 -48 187 -70 308 -77 112 -8 210
3 509 57 460 82 611 115 1115 246 789 204 1197 261 1586 223 286 -29 487 -88
874 -260 495 -220 885 -325 975 -263 66 45 59 56 -132 215 -430 358 -826 636
-1278 900 -338 197 -368 209 -530 214 -63 1 -182 -4 -265 -11z"/>
<path d="M6347 22895 c-226 -28 -450 -89 -540 -149 -138 -92 -341 -298 -757
-771 -225 -255 -287 -336 -336 -441 -46 -99 -53 -145 -24 -174 30 -30 69 -22
186 35 102 50 216 123 499 320 332 231 473 301 699 344 228 44 444 48 816 15
433 -39 1511 -168 1740 -209 194 -35 309 -32 394 9 149 73 307 201 322 261 22
90 -119 283 -316 431 -113 86 -202 128 -340 163 -202 51 -383 72 -845 96 -159
9 -389 27 -510 40 -121 13 -278 29 -349 35 -172 13 -505 11 -639 -5z"/>
<path d="M20962 21850 c-35 -10 -103 -37 -150 -60 -76 -37 -102 -58 -208 -164
-146 -147 -253 -301 -359 -521 -87 -178 -141 -323 -187 -500 -32 -127 -33
-134 -33 -340 0 -248 9 -301 111 -672 88 -319 111 -427 126 -572 28 -291 -48
-639 -236 -1082 -36 -85 -66 -162 -66 -171 0 -21 35 -42 53 -32 41 25 116 98
169 166 194 246 278 518 278 900 0 270 -33 469 -136 812 -139 464 -158 754
-72 1078 11 43 24 75 29 72 5 -3 44 0 87 6 261 39 470 -134 580 -480 48 -153
65 -273 65 -460 -1 -249 -27 -429 -133 -901 -54 -241 -59 -279 -35 -279 10 0
39 49 81 138 227 478 315 846 292 1227 -11 192 -49 339 -128 496 -106 211
-242 358 -397 432 -61 29 -77 32 -158 32 -81 0 -97 -3 -151 -30 l-60 -30 28
75 c93 243 233 467 383 615 124 123 186 160 270 159 64 0 148 -31 211 -79 50
-38 57 -34 52 35 -5 69 -27 106 -79 132 -44 23 -144 22 -227 -2z"/>
<path d="M13886 21750 c-228 -26 -394 -84 -541 -188 -116 -82 -314 -253 -420
-363 -112 -116 -173 -196 -235 -312 -34 -63 -40 -80 -30 -92 25 -30 46 -12
120 103 135 208 349 405 543 498 92 44 445 161 562 186 208 44 604 30 1190
-43 537 -66 1061 -196 1437 -354 97 -41 108 -42 108 -12 0 18 -19 37 -79 81
-401 289 -939 435 -1791 486 -239 14 -772 20 -864 10z"/>
<path d="M8070 21314 c-30 -2 -190 -13 -355 -25 -349 -24 -553 -48 -755 -89
-497 -102 -881 -299 -1121 -573 -72 -83 -93 -117 -71 -117 4 0 39 23 77 51
309 227 537 346 823 430 155 45 383 91 562 113 431 53 1105 64 1352 21 258
-44 497 -177 725 -401 63 -61 116 -108 118 -104 5 8 -151 230 -235 335 -94
117 -196 204 -306 258 -86 44 -151 63 -279 82 -98 15 -427 27 -535 19z"/>
<path d="M14003 21309 c-177 -21 -357 -90 -483 -187 -66 -51 -211 -195 -450
-451 -74 -79 -176 -180 -227 -224 -51 -44 -90 -83 -88 -88 8 -11 99 18 175 56
102 51 181 115 359 289 189 184 257 239 374 301 86 46 187 88 193 82 3 -2 -7
-30 -21 -62 -123 -277 -120 -609 9 -880 122 -259 329 -452 582 -544 l76 -28
-88 -12 c-49 -7 -202 -15 -340 -18 -312 -7 -456 6 -564 49 -72 28 -78 33 -145
119 -79 102 -96 132 -137 243 -47 128 -58 140 -77 85 -26 -76 -1 -246 54 -367
14 -30 24 -57 22 -59 -3 -2 -44 1 -92 6 -87 10 -105 9 -105 -9 0 -23 183 -96
340 -135 206 -51 294 -60 610 -60 314 1 409 9 687 61 353 65 603 146 979 319
303 139 456 233 545 333 110 125 81 177 -64 116 -80 -34 -153 -77 -307 -184
-173 -120 -177 -122 -133 -57 81 120 139 270 163 419 16 98 8 342 -14 418 -8
30 -14 55 -13 57 2 1 95 -43 208 -98 186 -92 373 -179 384 -179 3 0 5 7 5 16
0 34 -219 224 -381 330 -365 241 -673 308 -1564 344 -273 11 -369 11 -472 -1z
m214 -614 c32 -10 69 -32 101 -60 152 -137 121 -380 -61 -478 -61 -32 -203
-32 -264 0 -99 53 -156 146 -156 258 -1 92 28 160 95 220 80 72 177 92 285 60z"/>
<path d="M8005 20953 c-131 -12 -617 -78 -769 -104 -223 -38 -458 -97 -578
-144 -253 -100 -500 -280 -709 -516 -71 -81 -81 -99 -53 -99 19 0 45 15 329
185 303 183 482 270 629 309 53 13 57 13 51 -2 -78 -186 -99 -298 -92 -488 7
-196 50 -337 150 -491 52 -81 167 -206 227 -248 22 -15 39 -30 37 -31 -6 -6
-244 62 -356 101 -119 41 -210 86 -396 191 -139 78 -222 116 -311 139 -67 17
-84 12 -84 -27 0 -24 13 -43 59 -88 107 -105 252 -177 600 -299 326 -115 593
-177 916 -213 159 -17 646 -17 785 0 264 34 485 94 675 186 105 50 145 79 131
93 -6 6 -126 -10 -173 -23 l-21 -6 23 64 c45 123 54 269 24 356 -18 51 -34 38
-58 -45 -45 -159 -54 -180 -119 -279 -65 -99 -69 -102 -142 -137 -41 -20 -111
-43 -155 -52 -105 -20 -307 -45 -365 -45 l-45 0 75 44 c322 189 503 525 487
901 -6 135 -29 236 -81 356 l-34 79 28 -16 c15 -9 76 -57 136 -105 292 -238
372 -292 490 -329 86 -26 134 -34 134 -22 0 5 -39 38 -87 73 -98 71 -173 135
-375 317 -75 68 -178 157 -230 199 -102 81 -253 162 -353 187 -115 29 -274 41
-400 29z m-728 -727 c167 -86 206 -302 80 -435 -100 -105 -280 -109 -385 -8
-74 71 -101 186 -67 288 22 65 92 139 156 162 55 21 171 17 216 -7z"/>
<path d="M2733 20748 c7 -115 42 -228 144 -466 88 -206 159 -411 147 -427 -84
-109 -130 -220 -159 -382 -42 -245 -57 -606 -34 -798 21 -172 103 -435 135
-435 12 0 14 58 13 373 -1 324 2 392 20 527 31 232 87 498 102 483 13 -14 87
-329 114 -487 73 -431 96 -737 93 -1248 -2 -295 1 -421 9 -429 6 -6 21 -9 34
-7 28 4 38 39 65 246 22 167 25 603 5 812 -40 425 -131 959 -231 1345 -58 226
-165 568 -217 691 -63 151 -173 294 -227 294 -18 0 -19 -6 -13 -92z"/>
<path d="M12860 17549 c0 -11 44 -89 97 -172 122 -190 168 -282 189 -376 40
-178 -30 -321 -216 -444 -94 -62 -508 -268 -745 -371 -491 -214 -952 -384
-1102 -407 -111 -17 -257 0 -456 51 -940 240 -1102 287 -1262 367 -99 50 -332
190 -382 230 -92 74 -135 170 -135 304 0 104 23 205 91 398 28 79 48 148 45
153 -14 22 -35 0 -92 -96 -79 -132 -135 -254 -169 -364 -21 -69 -26 -109 -27
-192 0 -94 2 -111 27 -164 85 -183 194 -259 609 -422 403 -159 486 -186 998
-324 366 -98 448 -113 635 -114 157 0 162 1 285 38 312 95 877 328 1400 578
467 223 662 394 686 598 18 159 -113 401 -350 647 -99 103 -126 121 -126 82z"/>
<path d="M15530 15010 c-30 -4 -91 -17 -135 -28 -44 -12 -139 -28 -210 -37
-247 -30 -405 -68 -930 -226 -749 -225 -1325 -406 -1910 -599 -597 -197 -859
-249 -1257 -250 -195 0 -352 17 -523 56 -361 83 -605 119 -1148 174 -215 21
-540 55 -722 74 -614 66 -911 86 -1262 86 -221 0 -233 -1 -233 -19 0 -13 9
-20 33 -24 168 -30 460 -78 532 -87 86 -12 93 -14 164 -67 258 -193 465 -393
682 -659 492 -604 790 -776 1599 -923 372 -68 555 -86 755 -75 189 10 197 10
333 -4 216 -23 426 6 887 123 322 81 523 142 725 217 474 175 1087 573 1369
887 153 171 456 563 705 913 163 229 220 274 461 358 154 54 197 76 193 98 -4
20 -31 23 -108 12z m-942 -591 c-90 -134 -192 -290 -227 -347 l-64 -102 -111
-62 c-61 -34 -233 -139 -381 -233 -342 -217 -385 -242 -635 -364 -344 -167
-453 -209 -896 -342 -94 -28 -177 -55 -185 -60 -28 -17 2 -19 112 -9 403 37
845 174 1357 421 100 48 182 86 182 83 0 -6 -274 -185 -405 -263 -511 -308
-1210 -520 -2002 -607 l-161 -18 -164 32 c-90 17 -264 45 -388 62 -348 46
-584 92 -785 150 -88 26 -258 88 -245 89 3 1 50 -8 105 -18 223 -44 602 -71
976 -71 202 0 262 12 122 24 -223 19 -566 82 -998 182 -291 68 -500 135 -661
215 -134 66 -128 61 -457 412 l-138 147 -50 147 c-27 80 -47 149 -44 151 10
10 452 -47 840 -108 1414 -224 1516 -236 1889 -227 371 9 518 38 1031 207 666
219 829 271 1166 375 185 57 442 134 570 170 239 68 802 214 807 210 2 -1 -71
-112 -160 -246z"/>
<path d="M14250 14945 c-664 -88 -731 -98 -988 -154 -125 -28 -309 -64 -410
-81 -345 -58 -419 -78 -711 -192 -590 -230 -683 -242 -1436 -174 -840 76
-1058 91 -1513 106 -350 12 -753 2 -1038 -25 -87 -9 -159 -16 -160 -18 -1 -1
311 -2 694 -2 816 0 819 0 1842 -99 358 -35 548 -49 567 -42 9 4 93 8 187 9
198 4 275 18 566 104 397 117 878 239 1234 313 82 17 381 69 663 115 526 87
748 128 933 171 211 50 151 46 -430 -31z"/>
<path d="M3826 6178 c-7 -57 -34 -412 -66 -863 -24 -345 -77 -1179 -86 -1373
-4 -78 -8 -141 -9 -140 -9 10 -27 382 -35 716 -9 396 -12 422 -46 422 -22 0
-31 -30 -48 -160 -59 -465 -30 -984 80 -1389 21 -76 24 -107 19 -165 -5 -65
-60 -1197 -85 -1741 -18 -410 -30 -863 -30 -1177 l0 -308 79 0 78 0 6 88 c3
48 11 458 16 912 27 2097 59 3163 146 4839 19 362 19 391 1 391 -10 0 -16 -16
-20 -52z"/>
<path d="M20277 4483 c-7 -11 -34 -244 -47 -399 -23 -284 -31 -750 -21 -1264
6 -283 13 -920 16 -1415 3 -495 8 -1014 11 -1153 l6 -252 53 0 52 0 6 103 c4
56 9 491 13 967 l6 865 28 130 c75 339 204 1239 255 1784 20 223 20 241 -5
241 -11 0 -20 -3 -20 -6 0 -4 -22 -115 -49 -248 -56 -274 -116 -622 -161 -936
-17 -118 -32 -219 -34 -225 -2 -5 -3 231 -3 525 1 531 -7 736 -39 1050 -21
209 -26 234 -46 238 -9 2 -18 -1 -21 -5z"/>
<path d="M12840 3306 c0 -2 -9 -80 -20 -173 -27 -230 -53 -503 -95 -993 -19
-228 -58 -651 -85 -940 -50 -522 -83 -901 -96 -1097 -6 -88 -4 -103 8 -103 11
0 17 15 21 53 17 140 69 685 92 957 28 325 72 819 129 1430 33 356 66 775 66
840 0 17 -4 30 -10 30 -5 0 -10 -2 -10 -4z"/>
<path d="M12140 3245 c-91 -29 -216 -204 -255 -360 -46 -181 4 -387 120 -493
69 -63 133 -86 219 -80 203 17 346 228 346 512 0 160 -32 255 -111 334 -88 87
-212 121 -319 87z m186 -74 c158 -72 221 -369 122 -583 -71 -155 -226 -225
-348 -158 -177 99 -202 491 -43 678 33 39 131 82 188 82 22 0 58 -9 81 -19z"/>
</g>
</svg>
